# xmcd
#
# Track frame offsets: 
#        150
#        12024
#        22360
#        33757
#        42692
#        52302
#        63683
#        74377
#        84767
#        95129
#        107862
#        119003
#        127826
#        139181
#        148598
#        159931
#        171108
#        179706
#        190880
#        200737
#        213575
#        225661
#
# Disc length: 3152 seconds
#
# Revision: 2
# Processed by: cddbd v1.5.2PL0 Copyright (c) Steve Scherf et al.
# Submitted via: ExactAudioCopy v1.0b3
#
DISCID=520c4e16
DTITLE=Patsy Cline - Lonely Street
DYEAR=2001
DGENRE=Country
TTITLE0=Let The Teardrops Fall
TTITLE1=How Can I Face Tomorrow
TTITLE2=Lonely Street
TTITLE3=Try Again
TTITLE4=I'm Moving Along
TTITLE5=That Wonderful Someone
TTITLE6=Stop, Look And Listen
TTITLE7=Too Many Secrets
TTITLE8=Walking Dream
TTITLE9=Just A Closer Walk With Thee
TTITLE10=Hidin' Out
TTITLE11=Ain't No Wheels On This Ship
TTITLE12=Cry Not For Me
TTITLE13=Love, Love, Love Me, Honey
TTITLE14=Hungry For Love
TTITLE15=Don't Ever Leave Me Again
TTITLE16=Come On In
TTITLE17=Stop The World (And Let Me Off)
TTITLE18=I'm Blue Again
TTITLE19=Yes, I Understand
TTITLE20=In Care Of The Blues
TTITLE21=Gotta Lot Of Rhythm In My Soul
EXTD=YEAR: 2001\n50 Original Recordings, Disc 2
EXTT0=
EXTT1=
EXTT2=
EXTT3=
EXTT4=
EXTT5=
EXTT6=
EXTT7=
EXTT8=
EXTT9=
EXTT10=
EXTT11=
EXTT12=
EXTT13=
EXTT14=
EXTT15=
EXTT16=
EXTT17=
EXTT18=
EXTT19=
EXTT20=
EXTT21=
PLAYORDER=
